<svg width="32" height="32" viewBox="0 0 32 32" fill="none" xmlns="http://www.w3.org/2000/svg">
<path fill-rule="evenodd" clip-rule="evenodd" d="M6.66669 5.33329C6.31306 5.33329 5.97393 5.47377 5.72388 5.72382C5.47383 5.97387 5.33335 6.313 5.33335 6.66663V25.3333C5.33335 25.6869 5.47383 26.0261 5.72388 26.2761C5.97393 26.5261 6.31307 26.6666 6.66669 26.6666H12C12.7364 26.6666 13.3334 27.2636 13.3334 28C13.3334 28.7363 12.7364 29.3333 12 29.3333H6.66669C5.60582 29.3333 4.5884 28.9119 3.83826 28.1617C3.08811 27.4116 2.66669 26.3942 2.66669 25.3333V6.66663C2.66669 5.60576 3.08811 4.58834 3.83826 3.8382C4.58841 3.08805 5.60582 2.66663 6.66669 2.66663H12C12.7364 2.66663 13.3334 3.26358 13.3334 3.99996C13.3334 4.73634 12.7364 5.33329 12 5.33329H6.66669ZM20.3905 8.39048C20.9112 7.86978 21.7555 7.86978 22.2762 8.39048L28.9428 15.0571C29.4635 15.5778 29.4635 16.4221 28.9428 16.9428L22.2762 23.6094C21.7555 24.1301 20.9112 24.1301 20.3905 23.6094C19.8698 23.0887 19.8698 22.2445 20.3905 21.7238L24.7811 17.3333H12C11.2636 17.3333 10.6667 16.7363 10.6667 16C10.6667 15.2636 11.2636 14.6666 12 14.6666H24.7811L20.3905 10.2761C19.8698 9.7554 19.8698 8.91118 20.3905 8.39048Z" fill="black"/>
</svg>
